<?xml version="1.0" encoding="UTF-8" standalone="no"?>
<svg xmlns="http://www.w3.org/2000/svg" viewBox="0 0 512 512" text-rendering="geometricPrecision" shape-rendering="geometricPrecision">
  <ellipse fill="#f8cd2e" stroke="#003a73" stroke-width="0" transform="translate(255, 255)" rx="240" ry="240"/>
  <g id="Redaction" transform="translate(240, 240)scale(0.55, 0.55)translate(-240, -240)">
    <g>
      <path class="st0" fill="#ffffff" transform="translate(23.3333, 16.6667)" d="M287.1,125.5C287.1,117.7,280.9,111.6,273.2,111.6L92.7,111.6C84.9,111.6,78.8,117.8,78.8,125.5L78.8,150.3C78.8,158.1,85,164.2,92.7,164.2L273.7,164.2C281.5,164.2,287.6,158,287.6,150.3L287.6,125.5L287.1,125.5zM222.5,330.3L153.9,397.8L253,397.8L272.1,380.8L249.4,357L246.3,360.6L238.5,352.8L241.6,349.2L222.5,330.3zM301.5,418.4C301.5,430.2,292.3,440.1,280.3,440.1L78.1,440.1C66.8,440.1,56.9,430.4,56.9,418.4L56.9,93.6C56.9,81.8,66.1,71.9,78.1,71.9L280.3,71.9C291.6,71.9,301,81.1,301,93.1L349.9,93.1C349.4,53.4,318.5,21.4,280.3,21.4L78.1,21.4C39.4,21.4,8.5,53.9,8.5,93.6L8.5,418.5C8.5,458.2,39.9,490.7,78.1,490.7L280.3,490.7C319,490.7,349.9,458.2,349.9,418.5L349.9,409.3L301,409.3L301,418.5L301.5,418.4L301.5,418.4zM78.6,230.7C78.6,245.1,89.9,257.1,103.9,257.1L234.9,257.1L284.4,204.5L104,204.5C90.1,204.5,78.6,216.3,78.6,230.7zM490.3,100.3C472.8,82.3,444,82.3,426.4,100.3L222,318.5L246.8,343.8L357.7,229.8C354.1,224.6,351.5,218,351.5,211.2C351.5,194.2,364.9,180.3,381.9,180.3C388.7,180.3,394.7,182.9,399.9,186.5L457.7,127.1L465.5,134.9L407.2,194.8C410.3,199.5,411.9,205,411.9,211.3C411.9,228.3,398.5,242.2,382,242.2C376.3,242.2,370.7,240.6,366,237.5L255.1,352.1L287,384.6L490.8,166.4C507.8,148.2,507.8,118.4,490.3,100.3zM382,231.2C392.8,231.2,401.1,222.3,401.1,211.6C401.1,200.9,392.2,192,382,192C371.2,192,362.9,200.9,362.9,211.6C362.9,222.5,371.1,231.2,382,231.2z"/>
    </g>
  </g>
</svg>